<svg width="1037" height="1037" viewBox="0 0 1037 1037" fill="none" xmlns="http://www.w3.org/2000/svg">
<path d="M974.618 271.926C1007.4 332.558 1027.76 399.117 1034.51 467.711L931.127 477.886C925.728 423.035 909.447 369.811 883.237 321.326L974.618 271.926Z" fill="#609140"/>
<path d="M343.33 1006.51C260.024 976.612 185.76 925.882 127.608 859.155L205.922 790.906C252.423 844.265 311.809 884.831 378.424 908.742L343.33 1006.51Z" fill="#609140"/>
<path d="M37.7413 712.699C25.3145 681.936 15.8693 650.05 9.53551 617.482L111.504 597.651C116.569 623.695 124.122 649.192 134.059 673.792L37.7413 712.699Z" fill="#609140"/>
<path d="M4.22244 452.463C7.16755 429.527 11.6437 406.814 17.6209 384.476L117.97 411.327C113.19 429.19 109.611 447.353 107.256 465.694L4.22244 452.463Z" fill="#609140"/>
<path d="M1025.31 409.016C1042.91 490.502 1040.61 575.031 1018.59 655.436C996.574 735.842 955.494 809.753 898.834 870.904C842.174 932.054 771.605 978.641 693.108 1006.72C614.612 1034.79 530.504 1043.52 447.915 1032.17C365.326 1020.82 286.691 989.729 218.677 941.523C150.662 893.317 95.2744 829.421 57.2086 755.254C19.1429 681.087 -0.478183 598.835 0.00884843 515.471C0.49588 432.107 21.0767 350.09 60.0064 276.372L151.864 324.882C120.733 383.83 104.276 449.415 103.886 516.078C103.497 582.74 119.187 648.513 149.626 707.821C180.066 767.13 224.357 818.224 278.745 856.772C333.133 895.32 396.014 920.186 462.057 929.261C528.099 938.336 595.357 931.353 658.126 908.903C720.896 886.454 777.327 849.2 822.636 800.301C867.944 751.402 900.794 692.298 918.4 628.002C936.006 563.705 937.848 496.111 923.772 430.951L1025.31 409.016Z" fill="#609140"/>
<path d="M749.965 54.5323C664.384 11.8372 568.661 -6.35536 473.384 1.96658C378.106 10.2885 286.987 44.8007 210.103 101.686C133.22 158.572 73.5679 235.614 37.745 324.292C1.92222 412.969 -8.67558 509.828 7.12375 604.154C22.9231 698.48 64.5038 786.598 127.267 858.763C190.031 930.929 271.531 984.328 362.755 1013.06C453.978 1041.78 551.37 1044.72 644.159 1021.54C736.948 998.364 821.519 949.973 888.517 881.721L864.85 858.489C802.137 922.375 722.976 967.671 636.122 989.367C549.268 1011.06 458.105 1008.31 372.716 981.424C287.328 954.533 211.04 904.549 152.291 837C93.542 769.451 54.6208 686.968 39.832 598.675C25.0432 510.382 34.9632 419.719 68.4947 336.713C102.026 253.707 157.863 181.593 229.829 128.346C301.795 75.0991 387.086 42.7944 476.269 35.0047C565.453 27.215 655.053 44.244 735.161 84.2083L749.965 54.5323Z" fill="#4D7339"/>
<path d="M749.965 54.5323C664.384 11.8372 568.661 -6.35536 473.384 1.96658C378.106 10.2885 286.987 44.8007 210.103 101.686C133.22 158.572 73.5679 235.614 37.745 324.292C1.92222 412.969 -8.67558 509.828 7.12375 604.154C22.9231 698.48 64.5038 786.598 127.267 858.763C190.031 930.929 271.531 984.328 362.755 1013.06C453.978 1041.78 551.37 1044.72 644.159 1021.54C736.948 998.364 821.519 949.973 888.517 881.721L864.85 858.489C802.137 922.375 722.976 967.671 636.122 989.367C549.268 1011.06 458.105 1008.31 372.716 981.424C287.328 954.533 211.04 904.549 152.291 837C93.542 769.451 54.6208 686.968 39.832 598.675C25.0432 510.382 34.9632 419.719 68.4947 336.713C102.026 253.707 157.863 181.593 229.829 128.346C301.795 75.0991 387.086 42.7944 476.269 35.0047C565.453 27.215 655.053 44.244 735.161 84.2083L749.965 54.5323Z" fill="#4D7339"/>
<path d="M519 871C449.183 871 380.934 850.297 322.884 811.509C264.833 772.721 219.588 717.59 192.871 653.087C166.153 588.585 159.162 517.608 172.783 449.133C186.403 380.658 220.023 317.759 269.391 268.391C318.759 219.023 381.658 185.403 450.133 171.783C518.608 158.162 589.585 165.153 654.087 191.871C718.59 218.588 773.721 263.833 812.509 321.884C851.297 379.934 872 448.183 872 518L819.05 518C819.05 458.656 801.452 400.644 768.482 351.301C735.513 301.958 688.651 263.5 633.824 240.79C578.997 218.08 518.667 212.138 460.463 223.715C402.259 235.293 348.795 263.87 306.833 305.833C264.87 347.795 236.293 401.259 224.715 459.463C213.138 517.667 219.08 577.997 241.79 632.824C264.5 687.651 302.958 734.513 352.301 767.482C401.644 800.452 459.656 818.05 519 818.05L519 871Z" fill="#ACC635"/>
<path d="M299.356 360.976C332.516 314.592 379.51 279.896 433.601 261.861C487.692 243.827 546.104 243.379 600.465 260.583C654.826 277.787 702.346 311.759 736.213 357.629C770.079 403.5 788.555 458.915 788.992 515.932C789.429 572.949 771.804 628.64 738.644 675.024C705.484 721.408 658.49 756.104 604.399 774.139C550.308 792.173 491.896 792.621 437.535 775.417C383.174 758.213 335.654 724.241 301.787 678.371L344.742 646.657C371.912 683.456 410.034 710.71 453.645 724.511C497.256 738.313 544.117 737.954 587.511 723.486C630.905 709.018 668.606 681.183 695.208 643.972C721.811 606.76 735.95 562.082 735.6 516.341C735.249 470.599 720.427 426.143 693.258 389.343C666.088 352.544 627.966 325.29 584.355 311.489C540.744 297.687 493.883 298.046 450.489 312.514C407.095 326.982 369.394 354.817 342.792 392.028L299.356 360.976Z" fill="#4D7339"/>
</svg>
